<?xml version="1.0" encoding="UTF-8"?>
<svg width="13px" height="14px" viewBox="0 0 13 14" version="1.1" xmlns="http://www.w3.org/2000/svg" xmlns:xlink="http://www.w3.org/1999/xlink">
    <!-- Generator: Sketch 52.5 (67469) - http://www.bohemiancoding.com/sketch -->
    <title>Shape</title>
    <desc>Created with Sketch.</desc>
    <g id="Page-1" stroke="none" stroke-width="1" fill="none" fill-rule="evenodd">
        <g id="Desktop-HD-Copy" transform="translate(-1258.000000, -33.000000)" fill="#FFFFFF" fill-rule="nonzero">
            <g id="Group-2" transform="translate(986.000000, 22.000000)">
                <path d="M284.802344,23.7517818 L281.597621,20.2863111 C282.421612,19.2678791 282.873081,17.9864832 282.873081,16.6524945 C282.873081,13.5357582 280.434201,11 277.43654,11 C274.438879,11 272,13.5357582 272,16.6524945 C272,19.7692308 274.438879,22.3049889 277.43654,22.3049889 C278.561904,22.3049889 279.634321,21.9520767 280.551205,21.2821332 L283.780274,24.7739002 C283.915242,24.9196363 284.096775,25 284.291309,25 C284.475442,25 284.65012,24.9270091 284.782725,24.7942984 C285.064479,24.5124109 285.073461,24.0449742 284.802344,23.7517818 Z M277.43654,12.4745638 C279.652285,12.4745638 281.454853,14.3487343 281.454853,16.6524945 C281.454853,18.9562546 279.652285,20.8304252 277.43654,20.8304252 C275.220796,20.8304252 273.418228,18.9562546 273.418228,16.6524945 C273.418228,14.3487343 275.220796,12.4745638 277.43654,12.4745638 Z" id="Shape"></path>
            </g>
        </g>
    </g>
</svg>